<svg id="Layer_1" enable-background="new 0 0 256 256" height="512" viewBox="0 0 256 256" width="512" xmlns="http://www.w3.org/2000/svg"><path d="m241.597 79.417h-227.194c-5.745 0-10.403 4.658-10.403 10.403 0 5.746 4.658 10.403 10.403 10.403h227.193c5.746 0 10.403-4.658 10.403-10.403.001-5.745-4.657-10.403-10.402-10.403z" fill="#ff4397"/><path d="m241.597 102.224h-227.194c-6.839 0-12.403-5.565-12.403-12.404s5.564-12.403 12.403-12.403h227.193c6.839 0 12.403 5.564 12.403 12.403s-5.563 12.404-12.402 12.404zm-227.194-20.807c-4.633 0-8.403 3.77-8.403 8.403s3.77 8.403 8.403 8.403h227.193c4.634 0 8.403-3.77 8.403-8.403s-3.77-8.403-8.403-8.403z" fill="#690589"/><path d="m227.36 127.265h-14.493c-3.144 0-5.693-2.549-5.693-5.694v-63.501c0-3.145 2.549-5.694 5.693-5.694h14.493c3.145 0 5.694 2.549 5.694 5.694v63.501c-.001 3.144-2.55 5.694-5.694 5.694z" fill="#526faa"/><path d="m201.48 138.652h-14.493c-3.145 0-5.694-2.549-5.694-5.693v-86.276c0-3.145 2.549-5.694 5.694-5.694h14.493c3.144 0 5.694 2.549 5.694 5.694v86.275c0 3.144-2.55 5.694-5.694 5.694z" fill="#fcc24c"/><path d="m201.48 140.651h-14.493c-4.242 0-7.693-3.451-7.693-7.693v-86.275c0-4.242 3.451-7.693 7.693-7.693h14.493c4.242 0 7.693 3.451 7.693 7.693v86.275c.001 4.242-3.45 7.693-7.693 7.693zm-14.493-97.662c-2.036 0-3.693 1.657-3.693 3.693v86.275c0 2.036 1.657 3.693 3.693 3.693h14.493c2.036 0 3.693-1.657 3.693-3.693v-86.274c0-2.036-1.657-3.693-3.693-3.693h-14.493z" fill="#690589"/><path d="m227.36 52.376h-9.11c3.144 0 5.694 2.549 5.694 5.694v63.501c0 3.144-2.549 5.694-5.694 5.694h9.11c3.144 0 5.694-2.549 5.694-5.694v-63.501c-.001-3.145-2.55-5.694-5.694-5.694z" fill="#34518c"/><path d="m227.359 129.265h-14.492c-4.242 0-7.693-3.451-7.693-7.693v-63.502c0-4.242 3.451-7.694 7.693-7.694h14.492c4.243 0 7.694 3.452 7.694 7.694v63.501c.001 4.242-3.45 7.694-7.694 7.694zm-14.492-74.889c-2.036 0-3.693 1.657-3.693 3.694v63.501c0 2.036 1.657 3.693 3.693 3.693h14.492c2.037 0 3.694-1.657 3.694-3.693v-63.501c0-2.037-1.657-3.694-3.694-3.694z" fill="#690589"/><path d="m28.64 52.376h14.493c3.144 0 5.694 2.549 5.694 5.694v63.501c0 3.144-2.549 5.693-5.694 5.693h-14.493c-3.145 0-5.694-2.549-5.694-5.693v-63.501c.001-3.145 2.55-5.694 5.694-5.694z" fill="#526faa"/><path d="m54.52 40.989h14.493c3.145 0 5.694 2.549 5.694 5.694v86.275c0 3.144-2.549 5.693-5.694 5.693h-14.493c-3.145 0-5.694-2.549-5.694-5.693v-86.275c0-3.145 2.549-5.694 5.694-5.694z" fill="#fcc24c"/><path d="m69.013 140.651h-14.493c-4.242 0-7.694-3.451-7.694-7.693v-86.275c0-4.242 3.452-7.693 7.694-7.693h14.493c4.242 0 7.693 3.451 7.693 7.693v86.275c0 4.242-3.451 7.693-7.693 7.693zm-14.493-97.662c-2.037 0-3.694 1.657-3.694 3.693v86.275c0 2.036 1.657 3.693 3.694 3.693h14.493c2.037 0 3.693-1.657 3.693-3.693v-86.274c0-2.036-1.657-3.693-3.693-3.693h-14.493z" fill="#690589"/><path d="m28.64 127.265h9.11c-3.144 0-5.694-2.549-5.694-5.694v-63.501c0-3.144 2.549-5.694 5.694-5.694h-9.11c-3.144 0-5.694 2.549-5.694 5.694v63.501c.001 3.144 2.55 5.694 5.694 5.694z" fill="#708dc8"/><path d="m43.133 129.265h-14.493c-4.242 0-7.693-3.451-7.693-7.693v-63.503c0-4.242 3.451-7.693 7.693-7.693h14.493c4.242 0 7.693 3.451 7.693 7.693v63.502c0 4.242-3.451 7.694-7.693 7.694zm-14.493-74.889c-2.037 0-3.693 1.657-3.693 3.693v63.502c0 2.036 1.657 3.693 3.693 3.693h14.493c2.037 0 3.693-1.657 3.693-3.693v-63.502c0-2.036-1.657-3.693-3.693-3.693z" fill="#690589"/><path d="m32.056 84.732c-1.104 0-2-.896-2-2v-12c0-1.104.896-2 2-2s2 .896 2 2v12c0 1.105-.895 2-2 2z" fill="#690589"/><path d="m127.939 44.396c-5.015 0-9.081 4.066-9.081 9.081v30.101c0 5.015 4.066 9.081 9.081 9.081 5.015 0 9.081-4.066 9.081-9.081v-30.102c-.001-5.015-4.066-9.08-9.081-9.08z" fill="#ff9f70"/><path d="m146.1 48.627c-5.015 0-9.081 4.066-9.081 9.081v25.87c0 5.015 4.066 9.081 9.081 9.081 5.015 0 9.081-4.066 9.081-9.081v-25.87c0-5.015-4.066-9.081-9.081-9.081z" fill="#ff9f70"/><path d="m127.938 94.658c-6.11 0-11.081-4.971-11.081-11.081v-30.1c0-6.11 4.971-11.081 11.081-11.081s11.081 4.971 11.081 11.081v30.101c.001 6.11-4.97 11.08-11.081 11.08zm0-48.262c-3.904 0-7.081 3.177-7.081 7.081v30.101c0 3.904 3.176 7.081 7.081 7.081s7.081-3.177 7.081-7.081v-30.101c.001-3.905-3.176-7.081-7.081-7.081z" fill="#690589"/><path d="m146.1 94.658c-6.109 0-11.08-4.971-11.08-11.081v-25.869c0-6.11 4.971-11.081 11.08-11.081 6.11 0 11.081 4.971 11.081 11.081v25.869c0 6.111-4.971 11.081-11.081 11.081zm0-44.031c-3.904 0-7.08 3.177-7.08 7.081v25.869c0 3.904 3.176 7.081 7.08 7.081s7.081-3.177 7.081-7.081v-25.869c0-3.904-3.177-7.081-7.081-7.081z" fill="#690589"/><path d="m164.261 52.859c-5.015 0-9.081 4.066-9.081 9.08v21.639c0 5.015 4.066 9.081 9.081 9.081 5.015 0 9.081-4.066 9.081-9.081v-21.639c0-5.015-4.066-9.08-9.081-9.08z" fill="#ff9f70"/><path d="m164.261 52.859c-1.529 0-2.967.382-4.232 1.049 2.882 1.522 4.849 4.545 4.849 8.031v21.639c0 3.486-1.967 6.51-4.849 8.032 1.264.667 2.702 1.049 4.231 1.049 5.015 0 9.081-4.066 9.081-9.081v-21.639c.001-5.015-4.065-9.08-9.08-9.08z" fill="#e18152"/><path d="m164.262 94.658c-6.11 0-11.081-4.971-11.081-11.081v-21.638c0-6.11 4.971-11.081 11.081-11.081 6.109 0 11.08 4.971 11.08 11.081v21.638c0 6.111-4.971 11.081-11.08 11.081zm0-39.8c-3.904 0-7.081 3.177-7.081 7.081v21.638c0 3.904 3.177 7.081 7.081 7.081s7.08-3.177 7.08-7.081v-21.638c0-3.904-3.176-7.081-7.08-7.081z" fill="#690589"/><path d="m109.777 48.627c-5.015 0-9.081 4.066-9.081 9.081v25.87c0 5.015 4.065 9.081 9.081 9.081 5.015 0 9.081-4.066 9.081-9.081v-25.87c0-5.015-4.066-9.081-9.081-9.081z" fill="#ff9f70"/><path d="m109.16 83.577v-25.87c0-3.486 1.967-6.509 4.849-8.031-1.264-.667-2.702-1.049-4.231-1.049-5.015 0-9.081 4.066-9.081 9.081v25.87c0 5.015 4.065 9.081 9.081 9.081 1.529 0 2.967-.382 4.231-1.049-2.882-1.523-4.849-4.546-4.849-8.033z" fill="#ffbd8e"/><path d="m109.777 94.658c-6.11 0-11.081-4.971-11.081-11.081v-25.869c0-6.11 4.971-11.081 11.081-11.081s11.081 4.971 11.081 11.081v25.869c0 6.111-4.971 11.081-11.081 11.081zm0-44.031c-3.904 0-7.081 3.177-7.081 7.081v25.869c0 3.904 3.176 7.081 7.081 7.081s7.081-3.177 7.081-7.081v-25.869c0-3.904-3.176-7.081-7.081-7.081z" fill="#690589"/><path d="m99.462 100.224h-8.819c-4.454 0-8.065 3.611-8.065 8.065v24.127c0 10.051 8.148 18.199 18.199 18.199v1.214c0 6.705 5.436 12.141 12.141 12.141v51.041h50.119v-51.152c5.94-.767 10.385-5.854 10.385-12.029v-51.605h-72.645-1.315z" fill="#ff9f70"/><path d="m109.24 151.829v-1.214c-10.051 0-18.199-8.148-18.199-18.199v-24.127c0-4.455 3.611-8.065 8.065-8.065h-8.463c-4.454 0-8.065 3.611-8.065 8.065v24.127c0 10.051 8.148 18.199 18.199 18.199v1.214c0 6.705 5.436 12.141 12.141 12.141v51.041h8.463v-51.041c-6.705 0-12.141-5.436-12.141-12.141z" fill="#ffbd8e"/><path d="m164.593 151.829c0 6.053-4.271 11.056-10.033 11.976-1.079.094-1.908.997-1.908 2.08v49.126h10.385v-51.152c.001 0 .002 0 .003-.001.332-.043.658-.104.98-.173.096-.021.19-.044.285-.067.24-.058.476-.123.709-.195.089-.027.179-.053.267-.083.305-.102.605-.214.898-.339.044-.019.086-.041.13-.061.247-.11.49-.228.727-.354.102-.054.201-.11.301-.167.181-.102.358-.21.532-.322.101-.065.204-.127.303-.195.236-.161.467-.33.69-.507.003-.002.005-.004.008-.006.025-.02.052-.038.077-.058.22-.179.43-.369.637-.563.065-.06.131-.119.195-.181.18-.176.35-.36.518-.547.082-.091.164-.181.243-.274.104-.123.202-.251.3-.379.042-.053.086-.105.127-.16.088-.117.175-.235.259-.355.032-.045.06-.092.091-.138.088-.13.176-.261.26-.395.087-.141.171-.283.253-.428.098-.173.193-.347.282-.526.082-.164.158-.331.233-.499.076-.171.152-.341.221-.516.073-.186.137-.377.201-.568.056-.167.114-.332.163-.502.061-.212.11-.429.16-.645.027-.118.055-.235.081-.352.008-.041.02-.079.027-.12.048-.25.079-.505.112-.759.017-.134.041-.265.054-.4.037-.393.058-.791.058-1.194v-51.605h-8.829z" fill="#e18152"/><g fill="#690589"><path d="m163.037 217.011h-50.119c-1.104 0-2-.896-2-2v-49.182c-6.631-.943-11.796-6.503-12.125-13.311-10.21-.999-18.215-9.634-18.215-20.103v-24.127c0-5.55 4.515-10.065 10.065-10.065h82.779c1.104 0 2 .896 2 2v51.605c0 6.485-4.356 12.075-10.385 13.671v49.511c0 1.105-.895 2.001-2 2.001zm-48.119-4h46.119v-49.152c0-1.006.746-1.854 1.744-1.983 5.007-.647 8.641-4.872 8.641-10.046v-49.605h-80.779c-3.344 0-6.065 2.721-6.065 6.065v24.127c0 8.933 7.267 16.199 16.199 16.199 1.104 0 2 .896 2 2v1.214c0 5.592 4.549 10.141 10.141 10.141 1.104 0 2 .896 2 2z"/><path d="m116.902 144.082c-1.104 0-2-.896-2-2 0-8.182-1.921-14.212-5.71-17.922-3.63-3.555-7.778-3.762-8.379-3.772h-.116c-1.096 0-1.988-.883-2-1.979-.011-1.097.862-1.998 1.958-2.021h.117 23.256c3.904 0 7.081-3.177 7.081-7.081s-3.176-7.081-7.081-7.081l-23.251-.002c-1.104 0-2-.896-2-2s.896-2 2-2l23.252.002c6.109 0 11.08 4.971 11.08 11.081s-4.971 11.081-11.081 11.081h-13.045c.339.284.675.588 1.008.914 4.586 4.491 6.912 11.482 6.912 20.78-.001 1.105-.896 2-2.001 2z"/></g></svg>